<?xml version="1.0" encoding="utf-8"?>
<!-- Generator: Adobe Illustrator 23.1.0, SVG Export Plug-In . SVG Version: 6.00 Build 0)  -->
<svg version="1.1" id="Layer_1" xmlns="http://www.w3.org/2000/svg" xmlns:xlink="http://www.w3.org/1999/xlink" x="0px" y="0px"
	 width="136px" height="16px" viewBox="0 0 136 16" style="enable-background:new 0 0 136 16;" xml:space="preserve">
<g>
	<path d="M63.4,80.7v-16h4.8c1.4,0,2.6,0.3,3.7,0.9c1.1,0.6,1.9,1.5,2.6,2.7c0.6,1.2,0.9,2.5,0.9,4v0.7c0,1.5-0.3,2.8-0.9,4
		c-0.6,1.2-1.4,2.1-2.5,2.7c-1.1,0.6-2.3,1-3.7,1H63.4z M66.6,67.4v10.7h1.6c1.3,0,2.2-0.4,2.9-1.3c0.7-0.8,1-2,1-3.6v-0.8
		c0-1.6-0.3-2.9-1-3.7c-0.7-0.8-1.6-1.3-2.9-1.3H66.6z"/>
	<path d="M87.1,76.5c0-0.6-0.2-1.1-0.6-1.4c-0.4-0.3-1.2-0.7-2.3-1.1c-1.1-0.4-2-0.7-2.7-1.1c-1.8-1-2.7-2.3-2.7-4
		c0-0.9,0.2-1.6,0.7-2.3c0.5-0.7,1.2-1.2,2.1-1.6c0.9-0.4,1.9-0.6,3-0.6c1.1,0,2.1,0.2,3,0.6c0.9,0.4,1.6,1,2,1.7
		c0.5,0.8,0.7,1.6,0.7,2.6h-3.2c0-0.7-0.2-1.3-0.7-1.7c-0.5-0.4-1.1-0.6-1.9-0.6c-0.8,0-1.4,0.2-1.8,0.5C82.2,68,82,68.5,82,69
		c0,0.5,0.3,1,0.8,1.3c0.5,0.4,1.3,0.7,2.3,1c1.8,0.6,3.2,1.3,4,2.1s1.3,1.9,1.3,3.1c0,1.4-0.5,2.5-1.5,3.3c-1,0.8-2.4,1.2-4.2,1.2
		c-1.2,0-2.3-0.2-3.3-0.7c-1-0.5-1.7-1.1-2.3-1.8c-0.5-0.8-0.8-1.7-0.8-2.7h3.2c0,1.8,1,2.6,3.1,2.6c0.8,0,1.4-0.2,1.8-0.5
		C86.9,77.6,87.1,77.1,87.1,76.5z"/>
	<path d="M106.2,78.7c-0.6,0.7-1.4,1.3-2.5,1.7c-1.1,0.4-2.2,0.6-3.5,0.6c-1.4,0-2.6-0.3-3.6-0.9c-1-0.6-1.8-1.5-2.4-2.6
		c-0.6-1.1-0.8-2.5-0.9-4v-1.1c0-1.6,0.3-3,0.8-4.1c0.5-1.2,1.3-2.1,2.3-2.7c1-0.6,2.2-0.9,3.5-0.9c1.9,0,3.3,0.5,4.4,1.4
		c1,0.9,1.7,2.2,1.9,3.9h-3.1c-0.1-0.9-0.5-1.6-1-2c-0.5-0.4-1.2-0.6-2-0.6c-1.1,0-1.9,0.4-2.5,1.3c-0.6,0.8-0.9,2.1-0.9,3.8v1
		c0,1.7,0.3,2.9,0.9,3.8c0.6,0.9,1.5,1.3,2.8,1.3c1.2,0,2.1-0.3,2.6-0.8v-2.8H100v-2.4h6.2V78.7z"/>
	<path d="M123,80.7h-3.2l-6.3-10.5v10.5h-3.2v-16h3.2l6.3,10.5V64.8h3.2V80.7z"/>
</g>
<g>
	<g>
		<path d="M127,4.6c0-0.8,0.2-1.6,0.6-2.3s0.9-1.3,1.6-1.7c0.7-0.4,1.5-0.6,2.3-0.6c0.8,0,1.6,0.2,2.3,0.6c0.7,0.4,1.2,1,1.6,1.7
			s0.6,1.5,0.6,2.3c0,0.8-0.2,1.6-0.6,2.3c-0.4,0.7-0.9,1.3-1.6,1.7c-0.7,0.4-1.4,0.6-2.3,0.6c-0.8,0-1.6-0.2-2.3-0.6
			c-0.7-0.4-1.2-1-1.6-1.7C127.2,6.3,127,5.5,127,4.6z M135.2,4.6c0-0.7-0.2-1.3-0.5-1.9c-0.3-0.6-0.8-1.1-1.3-1.4s-1.2-0.5-1.9-0.5
			c-0.7,0-1.3,0.2-1.9,0.5c-0.6,0.3-1,0.8-1.4,1.4c-0.3,0.6-0.5,1.2-0.5,2c0,0.7,0.2,1.4,0.5,2c0.3,0.6,0.8,1.1,1.4,1.4
			c0.6,0.3,1.2,0.5,1.9,0.5s1.3-0.2,1.9-0.5s1-0.8,1.4-1.4C135.1,6,135.2,5.3,135.2,4.6z M130.6,5.1v2.1h-1V1.9h1.8
			c0.6,0,1.1,0.1,1.5,0.4c0.4,0.3,0.6,0.7,0.6,1.2c0,0.5-0.2,0.8-0.7,1.1c0.3,0.1,0.4,0.3,0.5,0.5c0.1,0.2,0.2,0.5,0.2,0.9
			c0,0.3,0,0.6,0,0.7s0,0.3,0.1,0.4v0.1h-1c-0.1-0.1-0.1-0.5-0.1-1.2c0-0.3-0.1-0.5-0.2-0.7s-0.4-0.2-0.7-0.2H130.6z M130.6,4.3h0.9
			c0.3,0,0.6-0.1,0.8-0.2c0.2-0.1,0.3-0.3,0.3-0.5c0-0.3-0.1-0.5-0.2-0.6c-0.2-0.1-0.4-0.2-0.8-0.2h-0.9V4.3z"/>
	</g>
	<g>
		<path d="M9.2,9.4h-6v6.4H0V0.1h9.9v2.6H3.1v4.1h6V9.4z"/>
		<path d="M24.5,0.1v10.3c0,1.7-0.5,3.1-1.6,4.1c-1,1-2.5,1.5-4.3,1.5c-1.8,0-3.2-0.5-4.2-1.5c-1-1-1.6-2.3-1.6-4V0.1H16v10.4
			c0,1,0.2,1.8,0.7,2.2c0.5,0.5,1.1,0.7,2,0.7c1.8,0,2.7-1,2.7-2.9V0.1H24.5z"/>
		<path d="M34.2,10h-2.5v5.7h-3.1V0.1h5.7c1.8,0,3.2,0.4,4.2,1.2s1.5,2,1.5,3.5c0,1.1-0.2,2-0.7,2.7c-0.4,0.7-1.1,1.3-2,1.7l3.3,6.4
			v0.2h-3.4L34.2,10z M31.7,7.4h2.5c0.8,0,1.4-0.2,1.8-0.6c0.4-0.4,0.6-1,0.6-1.7c0-0.7-0.2-1.3-0.6-1.7c-0.4-0.4-1-0.6-1.9-0.6
			h-2.5V7.4z"/>
		<path d="M56,15.8h-3.1L46.7,5.5v10.3h-3.1V0.1h3.1l6.1,10.3V0.1H56V15.8z"/>
		<path d="M63.4,15.8h-3.1V0.1h3.1V15.8z"/>
		<path d="M78.9,2.7h-4.7v13.1h-3.1V2.7h-4.6V0.1h12.4V2.7z"/>
		<path d="M93.5,0.1v10.3c0,1.7-0.5,3.1-1.6,4.1c-1,1-2.5,1.5-4.3,1.5c-1.8,0-3.2-0.5-4.2-1.5c-1-1-1.6-2.3-1.6-4V0.1H85v10.4
			c0,1,0.2,1.8,0.7,2.2c0.5,0.5,1.1,0.7,2,0.7c1.8,0,2.7-1,2.7-2.9V0.1H93.5z"/>
		<path d="M103.2,10h-2.5v5.7h-3.1V0.1h5.7c1.8,0,3.2,0.4,4.2,1.2c1,0.8,1.5,2,1.5,3.5c0,1.1-0.2,2-0.7,2.7c-0.4,0.7-1.1,1.3-2,1.7
			l3.3,6.4v0.2H106L103.2,10z M100.7,7.4h2.5c0.8,0,1.4-0.2,1.8-0.6s0.6-1,0.6-1.7c0-0.7-0.2-1.3-0.6-1.7s-1-0.6-1.9-0.6h-2.5V7.4z"
			/>
		<path d="M121.7,9h-6v4.2h7.1v2.6h-10.2V0.1h10.2v2.6h-7v3.7h6V9z"/>
	</g>
</g>
<text transform="matrix(1 0 0 1 -1.3525 -59.4023)" style="font-family:'Roboto-Bold'; font-size:21.5371px; letter-spacing:1;">Furniture</text>
</svg>
