<svg xmlns="http://www.w3.org/2000/svg" xmlns:xlink="http://www.w3.org/1999/xlink" x="0px" y="0px" width="17.6px" height="14.3px" viewBox="0 0 17.6 14.3" style="enable-background:new 0 0 17.6 14.3;fill:currentColor" xml:space="preserve">
<g>
<path d="M15.8,3.6c0,0.2,0,0.3,0,0.5c0,4.8-3.6,10.3-10.3,10.3c-2,0-3.9-0.6-5.5-1.6c0.3,0,0.6,0,0.9,0c1.7,0,3.2-0.6,4.5-1.5   c-1.6,0-2.9-1.1-3.4-2.5c0.2,0,0.4,0.1,0.7,0.1c0.3,0,0.6,0,0.9-0.1C2,8.3,0.7,6.8,0.7,5.1c0,0,0,0,0,0c0.5,0.3,1,0.4,1.6,0.5   c-1-0.6-1.6-1.8-1.6-3c0-0.7,0.2-1.3,0.5-1.8C3,2.8,5.7,4.3,8.7,4.4C8.6,4.2,8.6,3.9,8.6,3.6c0-2,1.6-3.6,3.6-3.6   c1,0,2,0.4,2.6,1.1c0.8-0.2,1.6-0.5,2.3-0.9c-0.3,0.8-0.8,1.5-1.6,2c0.7-0.1,1.4-0.3,2.1-0.6C17.1,2.4,16.5,3,15.8,3.6z"></path>
</g>
</svg>