<svg xmlns="http://www.w3.org/2000/svg" xmlns:xlink="http://www.w3.org/1999/xlink" x="0px" y="0px" viewBox="0 0 17.1 17.1" style="enable-background:new 0 0 17.1 17.1; fill:currentColor" xml:space="preserve">
<g>
<path d="M17.1,12.1c-0.1,1.4-0.4,2.6-1.4,3.6s-2.2,1.3-3.6,1.4c-1.2,0.1-2.4,0.1-3.5,0.1s-2.4,0-3.5-0.1c-1.4-0.1-2.6-0.4-3.6-1.4   s-1.3-2.2-1.4-3.6C0,10.9,0,9.7,0,8.6S0,6.2,0.1,5c0.1-1.4,0.4-2.6,1.4-3.6S3.7,0.1,5,0.1C6.2,0,7.4,0,8.6,0s2.4,0,3.5,0.1   c1.4,0.1,2.6,0.4,3.6,1.4S17,3.7,17.1,5c0.1,1.2,0.1,2.4,0.1,3.5S17.1,10.9,17.1,12.1z M3.5,1.9C3.1,2,2.8,2.2,2.5,2.5   C2.2,2.8,2,3.1,1.9,3.5C1.4,4.6,1.5,7.3,1.5,8.6s-0.1,3.9,0.3,5.1c0.2,0.4,0.3,0.7,0.6,1c0.3,0.3,0.6,0.5,1,0.6   c1.1,0.4,3.8,0.3,5.1,0.3s3.9,0.1,5.1-0.3c0.4-0.2,0.7-0.3,1-0.6c0.3-0.3,0.5-0.6,0.6-1c0.4-1.1,0.3-3.8,0.3-5.1s0.1-3.9-0.3-5.1   c-0.2-0.4-0.3-0.7-0.6-1c-0.3-0.3-0.6-0.5-1-0.6c-1.1-0.4-3.8-0.3-5.1-0.3S4.6,1.4,3.5,1.9z M8.6,13c-2.4,0-4.4-2-4.4-4.4   s2-4.4,4.4-4.4s4.4,2,4.4,4.4S11,13,8.6,13z M8.6,5.7C7,5.7,5.7,7,5.7,8.6s1.3,2.9,2.9,2.9s2.9-1.3,2.9-2.9S10.1,5.7,8.6,5.7z    M13.1,5c-0.6,0-1-0.5-1-1s0.5-1,1-1s1,0.5,1,1S13.7,5,13.1,5z"></path>
</g>
</svg>