<svg xmlns="http://www.w3.org/2000/svg" viewBox="0 0 30 10" style="stroke: transparent;"><path id="_copy_4" data-name="$ copy 4" class="cls-1" d="M1.074,4.265H17.012L13.55,1.212a0.564,0.564,0,0,1-.025-1A0.762,0.762,0,0,1,14.67.239l4.888,4.248a0.445,0.445,0,0,1,.2.221,0.718,0.718,0,0,1,0,.531,0.443,0.443,0,0,1-.2.221L14.67,9.707a0.761,0.761,0,0,1-1.146.022,0.564,0.564,0,0,1,.025-1l3.463-3.053H1.074a0.86,0.86,0,0,1-.586-0.2A0.644,0.644,0,0,1,.259,4.973V4.663l0.229-.2a0.86,0.86,0,0,1,.586-0.2h0Z"></path></svg>